<svg width="20" height="20" viewBox="0 0 20 20" fill="none" xmlns="http://www.w3.org/2000/svg">
<path d="M10.002 4.87023C7.16434 4.87023 4.8755 7.15869 4.8755 9.99584C4.8755 12.833 7.16434 15.1215 10.002 15.1215C12.8396 15.1215 15.1284 12.833 15.1284 9.99584C15.1284 7.15869 12.8396 4.87023 10.002 4.87023ZM10.002 13.3282C8.16822 13.3282 6.6691 11.8338 6.6691 9.99584C6.6691 8.15794 8.16376 6.66353 10.002 6.66353C11.8402 6.66353 13.3348 8.15794 13.3348 9.99584C13.3348 11.8338 11.8357 13.3282 10.002 13.3282ZM16.5339 4.66056C16.5339 5.32524 15.9985 5.8561 15.3381 5.8561C14.6734 5.8561 14.1424 5.32078 14.1424 4.66056C14.1424 4.00035 14.6778 3.46503 15.3381 3.46503C15.9985 3.46503 16.5339 4.00035 16.5339 4.66056ZM19.9292 5.87394C19.8534 4.27246 19.4875 2.85388 18.3141 1.68512C17.1451 0.516353 15.7263 0.150557 14.1246 0.0702598C12.4737 -0.0234199 7.52574 -0.0234199 5.87492 0.0702598C4.27764 0.146096 2.85882 0.511892 1.6854 1.68066C0.511978 2.84942 0.150582 4.268 0.0702714 5.86948C-0.0234238 7.52002 -0.0234238 12.4672 0.0702714 14.1178C0.14612 15.7192 0.511978 17.1378 1.6854 18.3066C2.85882 19.4753 4.27317 19.8411 5.87492 19.9214C7.52574 20.0151 12.4737 20.0151 14.1246 19.9214C15.7263 19.8456 17.1451 19.4798 18.3141 18.3066C19.483 17.1378 19.8489 15.7192 19.9292 14.1178C20.0229 12.4672 20.0229 7.52449 19.9292 5.87394ZM17.7965 15.8887C17.4485 16.7631 16.7748 17.4367 15.8959 17.7891C14.5797 18.311 11.4565 18.1906 10.002 18.1906C8.54746 18.1906 5.41983 18.3066 4.10809 17.7891C3.2336 17.4411 2.55989 16.7675 2.20742 15.8887C1.6854 14.5728 1.80586 11.4501 1.80586 9.99584C1.80586 8.54158 1.68986 5.41446 2.20742 4.10295C2.55543 3.2286 3.22914 2.555 4.10809 2.20259C5.42429 1.68066 8.54746 1.8011 10.002 1.8011C11.4565 1.8011 14.5841 1.68512 15.8959 2.20259C16.7703 2.55054 17.4441 3.22414 17.7965 4.10295C18.3185 5.41892 18.1981 8.54158 18.1981 9.99584C18.1981 11.4501 18.3185 14.5772 17.7965 15.8887Z" fill="white"/>
</svg>
