<svg width="16" height="16" viewBox="0 0 16 16" fill="none" xmlns="http://www.w3.org/2000/svg">
<g opacity="0.7">
<path d="M16 8C16 6.88542 15.7917 5.84375 15.375 4.875C14.9583 3.89583 14.3906 3.04688 13.6719 2.32812C12.9531 1.60938 12.1042 1.04167 11.125 0.625C10.1562 0.208333 9.11458 0 8 0C6.88542 0 5.84375 0.213542 4.875 0.640625C3.89583 1.06771 3.04688 1.64583 2.32812 2.375C1.60938 3.10417 1.04167 3.95312 0.625 4.92188C0.208333 5.89062 0 6.91667 0 8C0 9 0.171875 9.94792 0.515625 10.8438C0.869792 11.7396 1.35156 12.5391 1.96094 13.2422C2.57031 13.9453 3.28125 14.5365 4.09375 15.0156C4.91667 15.5052 5.80208 15.8333 6.75 16V10.4062H4.6875V8H6.75V6.28125C6.75 5.26042 7.01562 4.49219 7.54688 3.97656C8.07812 3.46094 8.80208 3.20312 9.71875 3.20312C10.1771 3.20312 10.5964 3.22135 10.9766 3.25781C11.3568 3.29427 11.5469 3.3125 11.5469 3.3125V5.25H10.5156C10.0052 5.25 9.66667 5.375 9.5 5.625C9.33333 5.875 9.25 6.17188 9.25 6.51562V8H11.4219L11.0781 10.2812H9.25V16C10.1979 15.8542 11.0833 15.5521 11.9062 15.0938C12.7188 14.625 13.4297 14.0365 14.0391 13.3281C14.6484 12.6198 15.1302 11.8125 15.4844 10.9062C15.8281 10 16 9.03125 16 8Z" fill="black"/>
</g>
</svg>
