<svg width="15" height="18" viewBox="0 0 15 18" fill="none" xmlns="http://www.w3.org/2000/svg">
<path d="M4.71094 11.3496L5.53711 11.1562C5.54883 11.1562 5.56055 11.1533 5.57227 11.1475C5.58398 11.1416 5.60156 11.1387 5.625 11.1387C5.74219 11.1035 5.84766 11.0508 5.94141 10.9805C6.03516 10.9102 6.11133 10.8223 6.16992 10.7168C6.22852 10.623 6.2666 10.5176 6.28418 10.4004C6.30176 10.2832 6.29883 10.166 6.27539 10.0488C6.27539 10.0488 6.27539 10.0459 6.27539 10.04C6.27539 10.0342 6.27539 10.0312 6.27539 10.0312C6.26367 9.97266 6.24609 9.91699 6.22266 9.86426C6.19922 9.81152 6.16992 9.76172 6.13477 9.71484C6.08789 9.65625 6.03516 9.60352 5.97656 9.55664C5.91797 9.50977 5.85938 9.46875 5.80078 9.43359C5.71875 9.38672 5.63672 9.3457 5.55469 9.31055C5.47266 9.27539 5.39062 9.24023 5.30859 9.20508L4.41211 8.87109C4.1543 8.77734 3.89648 8.68359 3.63867 8.58984C3.38086 8.49609 3.12305 8.4082 2.86523 8.32617C2.70117 8.26758 2.54883 8.21191 2.4082 8.15918C2.26758 8.10645 2.13281 8.05664 2.00391 8.00977C1.99219 8.00977 1.97168 8.00684 1.94238 8.00098C1.91309 7.99512 1.89258 7.98633 1.88086 7.97461C1.72852 7.92773 1.59668 7.89551 1.48535 7.87793C1.37402 7.86035 1.27734 7.85156 1.19531 7.85156C1.13672 7.83984 1.07812 7.83984 1.01953 7.85156C0.960938 7.86328 0.902344 7.88086 0.84375 7.9043C0.785156 7.92773 0.732422 7.95703 0.685547 7.99219C0.638672 8.02734 0.591797 8.06836 0.544922 8.11523C0.521484 8.13867 0.500977 8.16504 0.483398 8.19434C0.46582 8.22363 0.445312 8.25 0.421875 8.27344C0.410156 8.29688 0.395508 8.32324 0.37793 8.35254C0.360352 8.38184 0.345703 8.4082 0.333984 8.43164C0.322266 8.4668 0.310547 8.49902 0.298828 8.52832C0.287109 8.55762 0.269531 8.58398 0.246094 8.60742C0.164062 8.86523 0.102539 9.12305 0.0615234 9.38086C0.0205078 9.63867 0 9.90234 0 10.1719C0.0117188 10.4062 0.0292969 10.6611 0.0527344 10.9365C0.0761719 11.2119 0.152344 11.4551 0.28125 11.666C0.316406 11.7129 0.354492 11.7598 0.395508 11.8066C0.436523 11.8535 0.480469 11.8945 0.527344 11.9297C0.621094 12 0.714844 12.0439 0.808594 12.0615C0.902344 12.0791 1.00195 12.0879 1.10742 12.0879C1.24805 12.0996 1.38867 12.0908 1.5293 12.0615C1.66992 12.0322 1.81641 12 1.96875 11.9648L4.71094 11.3496ZM13.957 6.95508C13.8516 6.70898 13.7227 6.48047 13.5703 6.26953C13.418 6.05859 13.248 5.85938 13.0605 5.67188C13.0371 5.64844 13.0137 5.625 12.9902 5.60156C12.9668 5.57812 12.9375 5.55469 12.9023 5.53125C12.8789 5.51953 12.8555 5.50195 12.832 5.47852C12.8086 5.45508 12.7793 5.4375 12.7441 5.42578C12.7207 5.41406 12.6943 5.39941 12.665 5.38184C12.6357 5.36426 12.6094 5.34961 12.5859 5.33789C12.5273 5.31445 12.4658 5.2998 12.4014 5.29395C12.3369 5.28809 12.2754 5.28516 12.2168 5.28516C12.1582 5.28516 12.0996 5.29395 12.041 5.31152C11.9824 5.3291 11.9297 5.34961 11.8828 5.37305C11.8008 5.41992 11.7158 5.47559 11.6279 5.54004C11.54 5.60449 11.4375 5.68945 11.3203 5.79492C11.3086 5.80664 11.2939 5.82129 11.2764 5.83887C11.2588 5.85645 11.2383 5.87695 11.2148 5.90039C11.1211 5.99414 11.0215 6.09375 10.916 6.19922C10.8105 6.30469 10.6934 6.42188 10.5645 6.55078C10.377 6.73828 10.1895 6.93164 10.002 7.13086C9.81445 7.33008 9.62695 7.52344 9.43945 7.71094L8.77148 8.41406C8.70117 8.48438 8.63965 8.55176 8.58691 8.61621C8.53418 8.68066 8.47852 8.75391 8.41992 8.83594C8.38477 8.89453 8.35254 8.95898 8.32324 9.0293C8.29395 9.09961 8.26758 9.16992 8.24414 9.24023C8.23242 9.29883 8.22949 9.35449 8.23535 9.40723C8.24121 9.45996 8.25 9.51562 8.26172 9.57422C8.26172 9.57422 8.26172 9.57715 8.26172 9.58301C8.26172 9.58887 8.26172 9.5918 8.26172 9.5918C8.28516 9.70898 8.33203 9.81738 8.40234 9.91699C8.47266 10.0166 8.55469 10.0957 8.64844 10.1543C8.75391 10.2129 8.86523 10.2539 8.98242 10.2773C9.09961 10.3008 9.2168 10.3008 9.33398 10.2773C9.3457 10.2773 9.36035 10.2773 9.37793 10.2773C9.39551 10.2773 9.4043 10.2773 9.4043 10.2773L12.9902 9.43359C13.1309 9.41016 13.2715 9.37793 13.4121 9.33691C13.5527 9.2959 13.6875 9.24023 13.8164 9.16992C13.8984 9.12305 13.9775 9.07031 14.0537 9.01172C14.1299 8.95312 14.1973 8.87695 14.2559 8.7832C14.291 8.72461 14.3174 8.66602 14.335 8.60742C14.3525 8.54883 14.3613 8.49023 14.3613 8.43164C14.3848 8.18555 14.3496 7.93066 14.2559 7.66699C14.1621 7.40332 14.0625 7.16602 13.957 6.95508ZM7.54102 8.44922C7.66992 8.29688 7.74609 8.10938 7.76953 7.88672C7.79297 7.66406 7.81055 7.44727 7.82227 7.23633C7.85742 6.58008 7.89551 5.9209 7.93652 5.25879C7.97754 4.59668 8.01562 3.93164 8.05078 3.26367C8.0625 3.00586 8.07715 2.75391 8.09473 2.50781C8.1123 2.26172 8.11523 2.00977 8.10352 1.75195C8.0918 1.54102 8.07422 1.32422 8.05078 1.10156C8.02734 0.878906 7.94531 0.679688 7.80469 0.503906C7.57031 0.199219 7.24219 0.0351562 6.82031 0.0117188C6.39844 -0.0117188 6.01758 0 5.67773 0.046875C5.57227 0.0585938 5.4668 0.0732422 5.36133 0.0908203C5.25586 0.108398 5.15039 0.134766 5.04492 0.169922C4.95117 0.193359 4.85156 0.216797 4.74609 0.240234C4.64062 0.263672 4.53516 0.292969 4.42969 0.328125C4.11328 0.433594 3.76758 0.591797 3.39258 0.802734C3.01758 1.01367 2.78906 1.30664 2.70703 1.68164C2.67188 1.89258 2.68945 2.10352 2.75977 2.31445C2.83008 2.52539 2.90625 2.73047 2.98828 2.92969C3.09375 3.16406 3.20801 3.38965 3.33105 3.60645C3.4541 3.82324 3.57422 4.04297 3.69141 4.26562C4.01953 4.85156 4.34473 5.43457 4.66699 6.01465C4.98926 6.59473 5.31445 7.17188 5.64258 7.74609C5.73633 7.92188 5.84473 8.10352 5.96777 8.29102C6.09082 8.47852 6.24609 8.61914 6.43359 8.71289C6.44531 8.71289 6.45703 8.71582 6.46875 8.72168C6.48047 8.72754 6.49219 8.73633 6.50391 8.74805C6.58594 8.77148 6.67383 8.78613 6.76758 8.79199C6.86133 8.79785 6.94922 8.79492 7.03125 8.7832C7.04297 8.7832 7.05176 8.78027 7.05762 8.77441C7.06348 8.76855 7.06641 8.76562 7.06641 8.76562C7.14844 8.74219 7.22461 8.70996 7.29492 8.66895C7.36523 8.62793 7.42969 8.57812 7.48828 8.51953C7.5 8.50781 7.50879 8.49609 7.51465 8.48438C7.52051 8.47266 7.5293 8.46094 7.54102 8.44922ZM7.24219 12.0176C7.18359 11.9473 7.11914 11.8857 7.04883 11.833C6.97852 11.7803 6.90234 11.7363 6.82031 11.7012C6.73828 11.6777 6.65332 11.666 6.56543 11.666C6.47754 11.666 6.39258 11.6777 6.31055 11.7012C6.28711 11.7129 6.2666 11.7217 6.24902 11.7275C6.23145 11.7334 6.21094 11.7422 6.1875 11.7539C6.16406 11.7656 6.1377 11.7803 6.1084 11.7979C6.0791 11.8154 6.05273 11.8301 6.0293 11.8418C5.95898 11.9004 5.8916 11.9648 5.82715 12.0352C5.7627 12.1055 5.70117 12.1758 5.64258 12.2461C5.63086 12.2695 5.61621 12.29 5.59863 12.3076C5.58105 12.3252 5.56641 12.3457 5.55469 12.3691L4.97461 13.1602C4.81055 13.3828 4.64941 13.6055 4.49121 13.8281C4.33301 14.0508 4.17188 14.2734 4.00781 14.4961C3.90234 14.6484 3.80566 14.7861 3.71777 14.9092C3.62988 15.0322 3.55078 15.1465 3.48047 15.252C3.46875 15.2754 3.4541 15.2988 3.43652 15.3223C3.41895 15.3457 3.4043 15.3633 3.39258 15.375C3.31055 15.5156 3.24609 15.6357 3.19922 15.7354C3.15234 15.835 3.11133 15.9258 3.07617 16.0078C3.06445 16.0664 3.05566 16.125 3.0498 16.1836C3.04395 16.2422 3.04102 16.3008 3.04102 16.3594C3.05273 16.418 3.06738 16.4766 3.08496 16.5352C3.10254 16.5938 3.12891 16.6523 3.16406 16.7109C3.1875 16.7344 3.20801 16.7607 3.22559 16.79C3.24316 16.8193 3.26367 16.8457 3.28711 16.8691C3.29883 16.8926 3.31641 16.916 3.33984 16.9395C3.36328 16.9629 3.38672 16.9805 3.41016 16.9922C3.43359 17.0156 3.45996 17.0391 3.48926 17.0625C3.51855 17.0859 3.54492 17.1094 3.56836 17.1328C3.76758 17.2617 3.97559 17.3789 4.19238 17.4844C4.40918 17.5898 4.63477 17.6836 4.86914 17.7656C5.05664 17.8242 5.25 17.874 5.44922 17.915C5.64844 17.9561 5.84766 17.9766 6.04688 17.9766C6.08203 17.9883 6.11719 17.9912 6.15234 17.9854C6.1875 17.9795 6.2168 17.9766 6.24023 17.9766C6.27539 17.9766 6.30762 17.9736 6.33691 17.9678C6.36621 17.9619 6.39844 17.959 6.43359 17.959C6.46875 17.9473 6.50098 17.9385 6.53027 17.9326C6.55957 17.9268 6.5918 17.918 6.62695 17.9062C6.68555 17.8828 6.73828 17.8535 6.78516 17.8184C6.83203 17.7832 6.87891 17.7422 6.92578 17.6953C6.97266 17.6602 7.01074 17.6162 7.04004 17.5635C7.06934 17.5107 7.0957 17.4551 7.11914 17.3965C7.1543 17.3145 7.18359 17.2207 7.20703 17.1152C7.23047 17.0098 7.24805 16.875 7.25977 16.7109C7.25977 16.6875 7.25977 16.6641 7.25977 16.6406C7.25977 16.6172 7.26562 16.5938 7.27734 16.5703C7.27734 16.4414 7.2832 16.3008 7.29492 16.1484C7.30664 15.9961 7.3125 15.8262 7.3125 15.6387C7.33594 15.3691 7.35352 15.0967 7.36523 14.8213C7.37695 14.5459 7.38281 14.2676 7.38281 13.9863C7.38281 13.9863 7.38867 13.8252 7.40039 13.5029C7.41211 13.1807 7.41797 13.0195 7.41797 13.0195C7.42969 12.9023 7.42969 12.7852 7.41797 12.668C7.40625 12.5508 7.38867 12.4336 7.36523 12.3164C7.35352 12.2695 7.33594 12.2197 7.3125 12.167C7.28906 12.1143 7.26562 12.0645 7.24219 12.0176ZM13.7461 13.5469C13.6758 13.4766 13.5967 13.4092 13.5088 13.3447C13.4209 13.2803 13.3125 13.207 13.1836 13.125C13.1602 13.1133 13.1367 13.0986 13.1133 13.0811C13.0898 13.0635 13.0723 13.0488 13.0605 13.0371C12.9434 12.9785 12.8174 12.9111 12.6826 12.835C12.5479 12.7588 12.3984 12.6797 12.2344 12.5977C12 12.457 11.7598 12.3223 11.5137 12.1934C11.2676 12.0645 11.0273 11.9355 10.793 11.8066L9.91406 11.3496C9.89062 11.3496 9.87012 11.3408 9.85254 11.3232C9.83496 11.3057 9.81445 11.2969 9.79102 11.2969C9.70898 11.25 9.62402 11.209 9.53613 11.1738C9.44824 11.1387 9.35742 11.1152 9.26367 11.1035C9.22852 11.0918 9.19629 11.0859 9.16699 11.0859C9.1377 11.0859 9.10547 11.0859 9.07031 11.0859C9.04688 11.0859 9.02637 11.0859 9.00879 11.0859C8.99121 11.0859 8.9707 11.0859 8.94727 11.0859C8.86523 11.0977 8.78613 11.124 8.70996 11.165C8.63379 11.2061 8.56055 11.2559 8.49023 11.3145C8.43164 11.373 8.38184 11.4404 8.34082 11.5166C8.2998 11.5928 8.27344 11.6777 8.26172 11.7715C8.25 11.8301 8.24707 11.8857 8.25293 11.9385C8.25879 11.9912 8.26172 12.0469 8.26172 12.1055C8.28516 12.2109 8.32031 12.3223 8.36719 12.4395C8.41406 12.5566 8.4668 12.6621 8.52539 12.7559L8.98242 13.6172C9.11133 13.8633 9.24023 14.1094 9.36914 14.3555C9.49805 14.6016 9.63281 14.8418 9.77344 15.0762C9.85547 15.2402 9.93164 15.3896 10.002 15.5244C10.0723 15.6592 10.1426 15.7793 10.2129 15.8848C10.2246 15.9082 10.2393 15.9316 10.2568 15.9551C10.2744 15.9785 10.2832 16.002 10.2832 16.0254C10.3652 16.1543 10.4414 16.2627 10.5117 16.3506C10.582 16.4385 10.6523 16.5117 10.7227 16.5703C10.7695 16.6172 10.8164 16.6553 10.8633 16.6846C10.9102 16.7139 10.9629 16.7402 11.0215 16.7637C11.0801 16.7871 11.1416 16.8018 11.2061 16.8076C11.2705 16.8135 11.332 16.8105 11.3906 16.7988C11.4141 16.7988 11.4434 16.7959 11.4785 16.79C11.5137 16.7842 11.5488 16.7754 11.584 16.7637C11.6074 16.7637 11.6338 16.7578 11.6631 16.7461C11.6924 16.7344 11.7246 16.7227 11.7598 16.7109C11.7832 16.6992 11.8125 16.6875 11.8477 16.6758C11.8828 16.6641 11.9121 16.6465 11.9355 16.623C12.1113 16.5293 12.2783 16.4209 12.4365 16.2979C12.5947 16.1748 12.75 16.043 12.9023 15.9023C13.0781 15.7383 13.2393 15.5625 13.3857 15.375C13.5322 15.1875 13.6641 14.9883 13.7812 14.7773C13.8047 14.7422 13.8223 14.71 13.834 14.6807C13.8457 14.6514 13.8574 14.6191 13.8691 14.584C13.8809 14.5488 13.8926 14.5195 13.9043 14.4961C13.916 14.4727 13.9219 14.4434 13.9219 14.4082C13.9336 14.373 13.9424 14.3408 13.9482 14.3115C13.9541 14.2822 13.957 14.25 13.957 14.2148C13.9688 14.1562 13.9688 14.0947 13.957 14.0303C13.9453 13.9658 13.9336 13.9043 13.9219 13.8457C13.9102 13.7871 13.8867 13.7344 13.8516 13.6875C13.8164 13.6406 13.7812 13.5938 13.7461 13.5469Z" fill="black"/>
</svg>
