<svg width="18" height="12" viewBox="0 0 18 12" fill="none" xmlns="http://www.w3.org/2000/svg">
<path d="M6.85547 8.56641V3.43359L11.2617 6L6.85547 8.56641ZM16.7812 1.83984C16.6562 1.47266 16.4707 1.15039 16.2246 0.873047C15.9785 0.595703 15.6719 0.425781 15.3047 0.363281C14.9688 0.277344 14.4297 0.207031 13.6875 0.152344C12.9453 0.105469 12.1953 0.0703125 11.4375 0.046875C10.6797 0.0234375 10.0117 0.0078125 9.43359 0C8.85547 0 8.56641 0 8.56641 0C8.56641 0 8.28125 0 7.71094 0C7.13281 0.0078125 6.46484 0.0234375 5.70703 0.046875C4.94922 0.0703125 4.19922 0.105469 3.45703 0.152344C2.71484 0.207031 2.17578 0.277344 1.83984 0.363281C1.47266 0.488281 1.16602 0.673828 0.919922 0.919922C0.673828 1.16602 0.488281 1.47266 0.363281 1.83984C0.277344 2.17578 0.207031 2.58203 0.152344 3.05859C0.105469 3.53516 0.0703125 3.99023 0.046875 4.42383C0.0234375 4.85742 0.0078125 5.23047 0 5.54297C0 5.84766 0 6 0 6C0 6 0 6.15234 0 6.45703C0.0078125 6.76953 0.0234375 7.14258 0.046875 7.57617C0.0703125 8.00977 0.105469 8.46484 0.152344 8.94141C0.207031 9.41797 0.277344 9.82422 0.363281 10.1602C0.488281 10.5273 0.673828 10.8496 0.919922 11.127C1.16602 11.4043 1.47266 11.5742 1.83984 11.6367C2.17578 11.7227 2.71484 11.793 3.45703 11.8477C4.19922 11.8945 4.94922 11.9297 5.70703 11.9531C6.46484 11.9766 7.13281 11.9922 7.71094 12C8.28125 12 8.56641 12 8.56641 12C8.56641 12 8.85547 12 9.43359 12C10.0117 11.9922 10.6797 11.9766 11.4375 11.9531C12.1953 11.9297 12.9453 11.8945 13.6875 11.8477C14.4297 11.793 14.9688 11.7227 15.3047 11.6367C15.6719 11.5117 15.9941 11.3262 16.2715 11.0801C16.5488 10.834 16.7188 10.5273 16.7812 10.1602C16.8672 9.82422 16.9375 9.41797 16.9922 8.94141C17.0391 8.46484 17.0742 8.00977 17.0977 7.57617C17.1211 7.14258 17.1328 6.76953 17.1328 6.45703C17.1406 6.15234 17.1445 6 17.1445 6C17.1445 6 17.1406 5.84766 17.1328 5.54297C17.1328 5.23047 17.1211 4.85742 17.0977 4.42383C17.0742 3.99023 17.0391 3.53516 16.9922 3.05859C16.9375 2.58203 16.8672 2.17578 16.7812 1.83984Z" fill="black"/>
</svg>
