<svg width="17" height="14" viewBox="0 0 17 14" fill="none" xmlns="http://www.w3.org/2000/svg">
<path d="M16.5156 1.68164C16.3333 1.73633 16.1488 1.79329 15.9619 1.85254C15.7751 1.91178 15.5586 1.97331 15.3125 2.03711C15.5586 1.85482 15.75 1.62467 15.8867 1.34668C16.0234 1.06868 16.151 0.779297 16.2695 0.478516C16.2695 0.414714 16.2445 0.344075 16.1943 0.266602C16.1442 0.189128 16.0918 0.182292 16.0371 0.246094C15.7363 0.419271 15.4355 0.565104 15.1348 0.683594C14.834 0.802083 14.5378 0.893229 14.2461 0.957031C14.2461 0.957031 14.2256 0.957031 14.1846 0.957031C14.1436 0.957031 14.123 0.957031 14.123 0.957031C14.0592 0.957031 13.9977 0.952474 13.9385 0.943359C13.8792 0.934245 13.8177 0.897786 13.7539 0.833984C13.4622 0.597005 13.1159 0.398763 12.7148 0.239258C12.3138 0.0797529 11.9036 0 11.4844 0C11.3112 0 11.1289 0.00455761 10.9375 0.0136719C10.7461 0.0227861 10.5319 0.0592451 10.2949 0.123047C9.69336 0.296224 9.1875 0.608398 8.77734 1.05957C8.36719 1.51074 8.07552 2.03711 7.90234 2.63867C7.83854 2.87565 7.80664 3.11263 7.80664 3.34961C7.80664 3.58659 7.83854 3.82812 7.90234 4.07422C7.90234 4.07422 7.90234 4.09245 7.90234 4.12891C7.90234 4.16536 7.90234 4.18359 7.90234 4.18359C7.90234 4.18359 7.88184 4.18359 7.84082 4.18359C7.7998 4.18359 7.7793 4.18359 7.7793 4.18359C7.12305 4.12891 6.48958 4.01042 5.87891 3.82812C5.26823 3.65495 4.6849 3.42253 4.12891 3.13086C3.57292 2.83919 3.04883 2.48828 2.55664 2.07812C2.06445 1.67708 1.61328 1.22591 1.20312 0.724609C1.13932 0.660808 1.0778 0.628906 1.01855 0.628906C0.95931 0.628906 0.897786 0.660808 0.833984 0.724609C0.660807 1.01628 0.53776 1.3125 0.464844 1.61328C0.391927 1.91406 0.355469 2.21484 0.355469 2.51562C0.355469 2.98958 0.446615 3.45671 0.628906 3.91699C0.811198 4.37728 1.08008 4.78516 1.43555 5.14062C1.31706 5.08594 1.19173 5.02897 1.05957 4.96973C0.927409 4.91048 0.77474 4.84896 0.601562 4.78516C0.53776 4.78516 0.480794 4.78971 0.430664 4.79883C0.380534 4.80794 0.355469 4.8444 0.355469 4.9082C0.355469 5.62825 0.551432 6.29134 0.943359 6.89746C1.33529 7.50358 1.85938 7.95703 2.51562 8.25781C2.51562 8.25781 2.51107 8.25781 2.50195 8.25781C2.49284 8.25781 2.45638 8.25781 2.39258 8.25781C2.27409 8.25781 2.17383 8.25781 2.0918 8.25781C2.00977 8.25781 1.90951 8.25781 1.79102 8.25781C1.73633 8.25781 1.68392 8.28288 1.63379 8.33301C1.58366 8.38314 1.55859 8.43555 1.55859 8.49023C1.79557 9.1556 2.16927 9.71159 2.67969 10.1582C3.1901 10.6048 3.77344 10.8874 4.42969 11.0059C3.89193 11.3704 3.30404 11.6416 2.66602 11.8193C2.02799 11.9971 1.38086 12.0859 0.724609 12.0859H0.246094C0.182292 12.0859 0.125326 12.111 0.0751953 12.1611C0.0250651 12.2113 0 12.2637 0 12.3184C0 12.3822 0.00455729 12.4437 0.0136719 12.5029C0.0227865 12.5622 0.0592448 12.6237 0.123047 12.6875C0.505859 12.8971 0.902344 13.084 1.3125 13.248C1.71354 13.4121 2.1237 13.5488 2.54297 13.6582C2.96224 13.7676 3.39062 13.8542 3.82812 13.918C4.25651 13.9727 4.69401 14 5.14062 14C5.53255 14 5.91536 13.9772 6.28906 13.9316C6.66276 13.8861 7.02962 13.8223 7.38965 13.7402C7.74967 13.6582 8.10286 13.5579 8.44922 13.4395C8.78646 13.321 9.11914 13.1888 9.44727 13.043C10.0488 12.7422 10.6139 12.4027 11.1426 12.0244C11.6712 11.6462 12.1452 11.1882 12.5645 10.6504C12.9837 10.1673 13.3483 9.6569 13.6582 9.11914C13.9681 8.58138 14.2415 8.01628 14.4785 7.42383C14.7155 6.88607 14.875 6.30729 14.957 5.6875C15.0391 5.06771 15.0801 4.48893 15.0801 3.95117C15.0801 3.83268 15.1051 3.73698 15.1553 3.66406C15.2054 3.59115 15.2578 3.52734 15.3125 3.47266C15.6133 3.23568 15.8844 2.99186 16.126 2.74121C16.3675 2.49056 16.5749 2.21484 16.748 1.91406C16.8118 1.85026 16.8027 1.77962 16.7207 1.70215C16.6387 1.62467 16.5703 1.61784 16.5156 1.68164Z" fill="black"/>
</svg>
