<svg width="16" height="16" viewBox="0 0 16 16" fill="none" xmlns="http://www.w3.org/2000/svg">
<path d="M8 0C6.91667 0 6.20833 0 5.875 0C5.54167 0 5.14583 0 4.6875 0C4.28125 0 3.91146 0.041667 3.57812 0.125C3.24479 0.208333 2.96875 0.28125 2.75 0.34375C2.45833 0.458333 2.19792 0.601562 1.96875 0.773438C1.73958 0.945312 1.54167 1.14583 1.375 1.375C1.14583 1.54167 0.950521 1.73958 0.789062 1.96875C0.627604 2.19792 0.515625 2.45833 0.453125 2.75C0.338542 3.03125 0.247396 3.32292 0.179688 3.625C0.111979 3.92708 0.0520833 4.28125 0 4.6875C0 5.08333 0 5.46354 0 5.82812C0 6.19271 0 6.91667 0 8C0 9.08333 0 9.79167 0 10.125C0 10.4583 0 10.8542 0 11.3125C0 11.7188 0.0416667 12.0885 0.125 12.4219C0.208333 12.7552 0.28125 13.0312 0.34375 13.25C0.458333 13.5417 0.596354 13.8021 0.757812 14.0312C0.919271 14.2604 1.08333 14.4583 1.25 14.625C1.42708 14.8542 1.64323 15.0365 1.89844 15.1719C2.15365 15.3073 2.39583 15.4323 2.625 15.5469C2.85417 15.6615 3.13542 15.7474 3.46875 15.8047C3.80208 15.862 4.17188 15.8906 4.57812 15.8906C4.97396 15.8906 5.35156 15.8906 5.71094 15.8906C6.07031 15.8906 6.79688 15.8906 7.89062 15.8906C8.97396 15.8906 9.68229 15.8906 10.0156 15.8906C10.349 15.8906 10.7448 15.8906 11.2031 15.8906C11.599 15.8906 11.9635 15.8464 12.2969 15.7578C12.6302 15.6693 12.9115 15.599 13.1406 15.5469C13.4323 15.4323 13.6901 15.2943 13.9141 15.1328C14.138 14.9714 14.3385 14.8021 14.5156 14.625C14.7448 14.4583 14.9245 14.2448 15.0547 13.9844C15.1849 13.724 15.3073 13.4792 15.4219 13.25C15.5365 13.0312 15.6224 12.7552 15.6797 12.4219C15.737 12.0885 15.7656 11.7188 15.7656 11.3125C15.7656 10.9167 15.7656 10.5365 15.7656 10.1719C15.7656 9.80729 15.7656 9.08333 15.7656 8C15.7656 6.91667 15.7656 6.20833 15.7656 5.875C15.7656 5.54167 15.7656 5.14583 15.7656 4.6875C15.7656 4.28125 15.724 3.91146 15.6406 3.57812C15.5573 3.24479 15.4844 2.96875 15.4219 2.75C15.3073 2.45833 15.1693 2.19792 15.0078 1.96875C14.8464 1.73958 14.6823 1.54167 14.5156 1.375C14.3385 1.14583 14.1224 0.963542 13.8672 0.828125C13.612 0.692708 13.3698 0.567708 13.1406 0.453125C12.9115 0.338542 12.6302 0.252604 12.2969 0.195312C11.9635 0.138021 11.599 0.109375 11.2031 0.109375C10.7969 0.057292 10.4323 0.026042 10.1094 0.015625C9.78646 0.00520802 9.08333 0 8 0ZM8 1.48438C9.08333 1.48438 9.78646 1.48438 10.1094 1.48438C10.4323 1.48438 10.7969 1.48438 11.2031 1.48438C11.599 1.48438 11.9167 1.50781 12.1562 1.55469C12.3958 1.60156 12.5729 1.65625 12.6875 1.71875C12.8542 1.77083 13.0182 1.84896 13.1797 1.95312C13.3411 2.05729 13.4792 2.16667 13.5938 2.28125C13.7083 2.39583 13.8177 2.53385 13.9219 2.69531C14.026 2.85677 14.1094 3.02604 14.1719 3.20312C14.224 3.31771 14.276 3.49219 14.3281 3.72656C14.3802 3.96094 14.4062 4.28125 14.4062 4.6875C14.4062 5.08333 14.4062 5.45833 14.4062 5.8125C14.4062 6.16667 14.4062 6.85938 14.4062 7.89062C14.4062 8.91146 14.4062 9.59896 14.4062 9.95312C14.4062 10.3073 14.4062 10.6823 14.4062 11.0781C14.4062 11.4844 14.3802 11.8073 14.3281 12.0469C14.276 12.2865 14.224 12.4635 14.1719 12.5781C14.1094 12.7448 14.026 12.9089 13.9219 13.0703C13.8177 13.2318 13.7083 13.3698 13.5938 13.4844C13.4792 13.599 13.3411 13.7083 13.1797 13.8125C13.0182 13.9167 12.8542 14 12.6875 14.0625C12.5729 14.1146 12.3958 14.1641 12.1562 14.2109C11.9167 14.2578 11.599 14.2812 11.2031 14.2812C10.7969 14.2812 10.4193 14.2812 10.0703 14.2812C9.72135 14.2812 9.03125 14.2812 8 14.2812C6.91667 14.2812 6.21354 14.2812 5.89062 14.2812C5.56771 14.2812 5.20312 14.2812 4.79688 14.2812C4.40104 14.2812 4.08333 14.2578 3.84375 14.2109C3.60417 14.1641 3.42708 14.1146 3.3125 14.0625C3.14583 14 2.98177 13.9167 2.82031 13.8125C2.65885 13.7083 2.52083 13.599 2.40625 13.4844C2.29167 13.3698 2.18229 13.2318 2.07812 13.0703C1.97396 12.9089 1.89062 12.7448 1.82812 12.5781C1.77604 12.4635 1.72396 12.2865 1.67188 12.0469C1.61979 11.8073 1.59375 11.4844 1.59375 11.0781C1.59375 10.6823 1.59375 10.3073 1.59375 9.95312C1.59375 9.59896 1.59375 8.91146 1.59375 7.89062C1.59375 6.85938 1.59375 6.16667 1.59375 5.8125C1.59375 5.45833 1.59375 5.08333 1.59375 4.6875C1.59375 4.28125 1.61979 3.96094 1.67188 3.72656C1.72396 3.49219 1.77604 3.31771 1.82812 3.20312C1.89062 3.02604 1.97396 2.85677 2.07812 2.69531C2.18229 2.53385 2.29167 2.39583 2.40625 2.28125C2.52083 2.16667 2.65885 2.05729 2.82031 1.95312C2.98177 1.84896 3.14583 1.77083 3.3125 1.71875C3.42708 1.65625 3.60417 1.60156 3.84375 1.55469C4.08333 1.50781 4.40104 1.48438 4.79688 1.48438C5.20312 1.48438 5.56771 1.48438 5.89062 1.48438C6.21354 1.48438 6.91667 1.48438 8 1.48438ZM8 10.625C7.83333 10.625 7.66406 10.6016 7.49219 10.5547C7.32031 10.5078 7.14583 10.4583 6.96875 10.4062C6.80208 10.3438 6.65104 10.2786 6.51562 10.2109C6.38021 10.1432 6.22917 10.0521 6.0625 9.9375C5.94792 9.77083 5.85156 9.61979 5.77344 9.48438C5.69531 9.34896 5.59896 9.19792 5.48438 9.03125C5.36979 8.85417 5.32292 8.67969 5.34375 8.50781C5.36458 8.33594 5.375 8.16667 5.375 8C5.375 7.83333 5.39844 7.66406 5.44531 7.49219C5.49219 7.32031 5.54167 7.14583 5.59375 6.96875C5.65625 6.80208 5.72135 6.65104 5.78906 6.51562C5.85677 6.38021 5.94792 6.22917 6.0625 6.0625C6.22917 5.94792 6.38021 5.85156 6.51562 5.77344C6.65104 5.69531 6.80208 5.59896 6.96875 5.48438C7.14583 5.43229 7.32031 5.40104 7.49219 5.39062C7.66406 5.38021 7.83333 5.375 8 5.375C8.34375 5.375 8.68229 5.4375 9.01562 5.5625C9.34896 5.6875 9.65625 5.89062 9.9375 6.17188C10.1667 6.40104 10.3594 6.68229 10.5156 7.01562C10.6719 7.34896 10.75 7.71354 10.75 8.10938C10.75 8.51562 10.6719 8.85156 10.5156 9.11719C10.3594 9.38281 10.1667 9.65625 9.9375 9.9375C9.65625 10.1667 9.34896 10.3385 9.01562 10.4531C8.68229 10.5677 8.34375 10.625 8 10.625ZM8 3.89062C7.42708 3.89062 6.89323 4 6.39844 4.21875C5.90365 4.4375 5.48438 4.74479 5.14062 5.14062C4.74479 5.48438 4.4375 5.90365 4.21875 6.39844C4 6.89323 3.89062 7.42708 3.89062 8C3.89062 8.57292 4 9.10677 4.21875 9.60156C4.4375 10.0964 4.74479 10.5156 5.14062 10.8594C5.48438 11.2552 5.90365 11.5625 6.39844 11.7812C6.89323 12 7.42708 12.1094 8 12.1094C8.57292 12.1094 9.10677 12 9.60156 11.7812C10.0964 11.5625 10.5156 11.2552 10.8594 10.8594C11.2552 10.5156 11.5625 10.0964 11.7812 9.60156C12 9.10677 12.1094 8.57292 12.1094 8C12.1094 7.42708 12 6.89323 11.7812 6.39844C11.5625 5.90365 11.2552 5.48438 10.8594 5.14062C10.5156 4.74479 10.0964 4.4375 9.60156 4.21875C9.10677 4 8.57292 3.89062 8 3.89062ZM13.25 3.76562C13.25 3.82812 13.2474 3.88802 13.2422 3.94531C13.237 4.0026 13.2031 4.05729 13.1406 4.10938C13.1406 4.17188 13.1172 4.23177 13.0703 4.28906C13.0234 4.34635 12.974 4.40104 12.9219 4.45312C12.9219 4.45312 12.8958 4.47396 12.8438 4.51562C12.7917 4.55729 12.7396 4.57812 12.6875 4.57812C12.625 4.57812 12.5651 4.59635 12.5078 4.63281C12.4505 4.66927 12.3958 4.6875 12.3438 4.6875C12.2812 4.6875 12.2214 4.68229 12.1641 4.67188C12.1068 4.66146 12.0521 4.63021 12 4.57812C11.9479 4.57812 11.8932 4.55208 11.8359 4.5C11.7786 4.44792 11.7188 4.39583 11.6562 4.34375C11.6042 4.34375 11.5521 4.32031 11.5 4.27344C11.4479 4.22656 11.4219 4.17188 11.4219 4.10938C11.4219 4.05729 11.4036 4.0026 11.3672 3.94531C11.3307 3.88802 11.3125 3.82812 11.3125 3.76562C11.3125 3.65104 11.3359 3.53646 11.3828 3.42188C11.4297 3.30729 11.4844 3.19271 11.5469 3.07812C11.6615 2.97396 11.776 2.91146 11.8906 2.89062C12.0052 2.86979 12.1198 2.85938 12.2344 2.85938C12.349 2.85938 12.4635 2.88281 12.5781 2.92969C12.6927 2.97656 12.8073 3.02604 12.9219 3.07812C13.026 3.14062 13.1068 3.22917 13.1641 3.34375C13.2214 3.45833 13.25 3.59896 13.25 3.76562Z" fill="black"/>
</svg>
